<svg width="343" height="135" viewBox="0 0 343 135" fill="none" xmlns="http://www.w3.org/2000/svg">
<rect x="104" width="135" height="135" fill="#FFDF4A"/>
<rect x="239" y="31" width="104" height="104" fill="#FFCC4A"/>
<rect y="31" width="104" height="104" fill="#FFCC4A"/>
<g filter="url(#filter0_d_124_3181)">
<path d="M165.1 38.088C165.548 37.896 166.028 37.8 166.54 37.8H175.756C176.076 37.8 176.332 37.928 176.524 38.184C176.78 38.376 176.908 38.632 176.908 38.952V103.848C176.908 104.168 176.78 104.456 176.524 104.712C176.332 104.904 176.076 105 175.756 105H166.924C166.604 105 166.316 104.904 166.06 104.712C165.868 104.456 165.772 104.168 165.772 103.848V49.704C165.772 49.576 165.708 49.448 165.58 49.32C165.516 49.192 165.42 49.16 165.292 49.224L157.42 50.76H157.132C156.428 50.76 156.076 50.408 156.076 49.704L155.788 43.272C155.788 42.632 156.044 42.184 156.556 41.928L165.1 38.088Z" fill="white"/>
</g>
<g filter="url(#filter1_d_124_3181)">
<path d="M288.286 99.216C288.201 99.3013 288.18 99.3867 288.222 99.472C288.265 99.5573 288.35 99.6 288.478 99.6H302.494C302.708 99.6 302.878 99.6853 303.006 99.856C303.177 99.984 303.262 100.155 303.262 100.368V105.232C303.262 105.445 303.177 105.637 303.006 105.808C302.878 105.936 302.708 106 302.494 106H280.158C279.945 106 279.753 105.936 279.582 105.808C279.454 105.637 279.39 105.445 279.39 105.232V100.112C279.39 99.728 279.497 99.408 279.71 99.152L282.206 95.76C283.87 93.5413 285.492 91.28 287.07 88.976C288.692 86.672 290.057 84.6027 291.166 82.768C293.641 78.672 294.878 75.28 294.878 72.592C294.878 70.8853 294.494 69.5413 293.726 68.56C293.001 67.5787 292.02 67.088 290.782 67.088C289.545 67.088 288.564 67.5787 287.838 68.56C287.113 69.4987 286.772 70.7573 286.814 72.336V74.832C286.814 75.0453 286.729 75.2373 286.558 75.408C286.43 75.536 286.26 75.6 286.046 75.6H280.03C279.817 75.6 279.625 75.536 279.454 75.408C279.326 75.2373 279.262 75.0453 279.262 74.832V72.08C279.433 68.6667 280.585 65.9147 282.718 63.824C284.894 61.7333 287.689 60.688 291.102 60.688C294.473 60.688 297.182 61.7973 299.23 64.016C301.321 66.192 302.366 69.072 302.366 72.656C302.366 74.7893 302.004 76.9013 301.278 78.992C300.553 81.0827 299.401 83.3227 297.822 85.712C296.756 87.4187 295.476 89.296 293.982 91.344C292.532 93.392 291.572 94.736 291.102 95.376C289.822 97.0827 288.884 98.3627 288.286 99.216Z" fill="white"/>
</g>
<g filter="url(#filter2_d_124_3181)">
<path d="M62.567 86.352C62.951 88.0587 63.143 89.9573 63.143 92.048C63.143 94.1387 62.9937 95.9307 62.695 97.424C62.183 100.325 61.0097 102.565 59.175 104.144C57.383 105.723 54.9297 106.512 51.815 106.512C48.5723 106.512 45.927 105.659 43.879 103.952C41.831 102.203 40.679 99.8347 40.423 96.848C40.3377 95.9093 40.2523 94.544 40.167 92.752C40.167 92.24 40.423 91.984 40.935 91.984H46.823C47.335 91.984 47.591 92.24 47.591 92.752C47.6763 94.2027 47.7617 95.2907 47.847 96.016C48.0603 97.3387 48.5083 98.3627 49.191 99.088C49.8737 99.7707 50.7483 100.112 51.815 100.112C52.839 100.112 53.6923 99.792 54.375 99.152C55.0577 98.4693 55.5057 97.5093 55.719 96.272C55.9323 94.992 56.039 93.328 56.039 91.28C56.039 89.104 55.8897 87.2907 55.591 85.84C55.335 84.7307 54.887 83.8773 54.247 83.28C53.607 82.6827 52.7963 82.384 51.815 82.384C51.175 82.384 50.599 82.576 50.087 82.96C49.831 83.1307 49.639 83.216 49.511 83.216C49.4257 83.216 49.255 83.1307 48.999 82.96L45.991 79.888C45.8203 79.7173 45.735 79.5253 45.735 79.312C45.735 79.1413 45.799 78.9707 45.927 78.8L53.927 67.92C54.0123 67.8347 54.0123 67.7493 53.927 67.664C53.8843 67.5787 53.799 67.536 53.671 67.536H41.511C41.2977 67.536 41.1057 67.472 40.935 67.344C40.807 67.1733 40.743 66.9813 40.743 66.768V61.968C40.743 61.7547 40.807 61.584 40.935 61.456C41.1057 61.2853 41.2977 61.2 41.511 61.2H62.247C62.4603 61.2 62.631 61.2853 62.759 61.456C62.9297 61.584 63.015 61.7547 63.015 61.968V67.024C63.015 67.3227 62.9083 67.6427 62.695 67.984L55.399 77.968C55.2283 78.224 55.271 78.3733 55.527 78.416C57.2763 78.6293 58.7697 79.4613 60.007 80.912C61.287 82.3627 62.1403 84.176 62.567 86.352Z" fill="white"/>
</g>
<path d="M104 31V135H92L104 31Z" fill="#E8AE19"/>
<path d="M239 31V135H251L239 31Z" fill="#E8AE19"/>
<defs>
<filter id="filter0_d_124_3181" x="155.788" y="37.8" width="23.1201" height="69.2" filterUnits="userSpaceOnUse" color-interpolation-filters="sRGB">
<feFlood flood-opacity="0" result="BackgroundImageFix"/>
<feColorMatrix in="SourceAlpha" type="matrix" values="0 0 0 0 0 0 0 0 0 0 0 0 0 0 0 0 0 0 127 0" result="hardAlpha"/>
<feOffset dx="2" dy="2"/>
<feComposite in2="hardAlpha" operator="out"/>
<feColorMatrix type="matrix" values="0 0 0 0 0 0 0 0 0 0 0 0 0 0 0 0 0 0 0.11 0"/>
<feBlend mode="normal" in2="BackgroundImageFix" result="effect1_dropShadow_124_3181"/>
<feBlend mode="normal" in="SourceGraphic" in2="effect1_dropShadow_124_3181" result="shape"/>
</filter>
<filter id="filter1_d_124_3181" x="279.263" y="60.688" width="26" height="47.312" filterUnits="userSpaceOnUse" color-interpolation-filters="sRGB">
<feFlood flood-opacity="0" result="BackgroundImageFix"/>
<feColorMatrix in="SourceAlpha" type="matrix" values="0 0 0 0 0 0 0 0 0 0 0 0 0 0 0 0 0 0 127 0" result="hardAlpha"/>
<feOffset dx="2" dy="2"/>
<feComposite in2="hardAlpha" operator="out"/>
<feColorMatrix type="matrix" values="0 0 0 0 0 0 0 0 0 0 0 0 0 0 0 0 0 0 0.11 0"/>
<feBlend mode="normal" in2="BackgroundImageFix" result="effect1_dropShadow_124_3181"/>
<feBlend mode="normal" in="SourceGraphic" in2="effect1_dropShadow_124_3181" result="shape"/>
</filter>
<filter id="filter2_d_124_3181" x="40.167" y="61.2" width="24.9756" height="47.312" filterUnits="userSpaceOnUse" color-interpolation-filters="sRGB">
<feFlood flood-opacity="0" result="BackgroundImageFix"/>
<feColorMatrix in="SourceAlpha" type="matrix" values="0 0 0 0 0 0 0 0 0 0 0 0 0 0 0 0 0 0 127 0" result="hardAlpha"/>
<feOffset dx="2" dy="2"/>
<feComposite in2="hardAlpha" operator="out"/>
<feColorMatrix type="matrix" values="0 0 0 0 0 0 0 0 0 0 0 0 0 0 0 0 0 0 0.11 0"/>
<feBlend mode="normal" in2="BackgroundImageFix" result="effect1_dropShadow_124_3181"/>
<feBlend mode="normal" in="SourceGraphic" in2="effect1_dropShadow_124_3181" result="shape"/>
</filter>
</defs>
</svg>
