<?xml version="1.0" encoding="UTF-8"?>
<svg width="752pt" height="752pt" version="1.1" viewBox="0 0 752 752" xmlns="http://www.w3.org/2000/svg">
 <g>
  <path d="m194.34 554.3 47.738-47.691 3.3633 3.3633-47.738 47.691 26.758 26.711 47.734-47.645 26.805 26.805c3.5547 3.5586 8.375 5.5547 13.402 5.5547 5.0273 0 9.8516-1.9961 13.402-5.5547l56.074-56.117 25.953 25.953 26.805-26.805-189.43-189.43-26.805 26.805 25.953 25.953-55.883 56.355c-3.5586 3.5508-5.5586 8.3711-5.5586 13.402 0 5.0273 2 9.8477 5.5586 13.402l26.805 26.805-47.645 47.688zm77.004-157.37 83.73 83.73-42.621 42.621-83.777-83.633z"/>
  <path d="m509.93 245.39-3.3633-3.3633 47.738-47.688-26.758-26.711-47.738 47.645-26.805-26.805c-3.5508-3.5586-8.3711-5.5586-13.402-5.5586-5.0273 0-9.8477 2-13.402 5.5586l-56.07 56.117-25.953-25.953-26.805 26.805 39.355 39.355 5.0664 4.9727-48.59 48.352 26.805 26.996 48.543-48.543 43.523 43.523-48.543 48.543 26.805 26.805 48.543-48.543 47.738 47.738 26.805-26.805-25.953-25.953 56.07-56.121c3.5586-3.5508 5.5547-8.375 5.5547-13.402 0-5.0273-1.9961-9.8477-5.5547-13.402l-26.805-26.805 47.645-47.688-26.805-26.805zm-29.266 109.68-83.73-83.73 42.621-42.621 83.777 83.633z"/>
 </g>
</svg>
